<mxfile host="app.diagrams.net" modified="2023-11-11T18:47:21.428Z" agent="Mozilla/5.0 (Windows NT 10.0; Win64; x64) AppleWebKit/537.36 (KHTML, like Gecko) Chrome/119.0.0.0 Safari/537.36" version="22.1.0" etag="9ZT173zhKEO6VycJI9UZ" type="device">
  <diagram id="BMzyW_WU0drHb0m79tCT" name="Page-1">
    <mxGraphModel dx="880" dy="1578" grid="1" gridSize="10" guides="1" tooltips="1" connect="1" arrows="1" fold="1" page="1" pageScale="1" pageWidth="850" pageHeight="1100" math="0" shadow="0">
      <root>
        <mxCell id="0" />
        <mxCell id="1" parent="0" />
        <mxCell id="0QXSVdMffTq5Xskhfl2z-8" style="edgeStyle=orthogonalEdgeStyle;rounded=0;orthogonalLoop=1;jettySize=auto;html=1;exitX=0.5;exitY=1;exitDx=0;exitDy=0;entryX=0.5;entryY=0;entryDx=0;entryDy=0;" edge="1" parent="1" source="0QXSVdMffTq5Xskhfl2z-1" target="0QXSVdMffTq5Xskhfl2z-3">
          <mxGeometry relative="1" as="geometry" />
        </mxCell>
        <mxCell id="0QXSVdMffTq5Xskhfl2z-1" value="BEGIN" style="ellipse;whiteSpace=wrap;html=1;" vertex="1" parent="1">
          <mxGeometry x="380" y="-1080" width="120" height="64" as="geometry" />
        </mxCell>
        <mxCell id="0QXSVdMffTq5Xskhfl2z-2" value="END" style="ellipse;whiteSpace=wrap;html=1;" vertex="1" parent="1">
          <mxGeometry x="380" y="-670" width="120" height="64" as="geometry" />
        </mxCell>
        <mxCell id="0QXSVdMffTq5Xskhfl2z-9" style="edgeStyle=orthogonalEdgeStyle;rounded=0;orthogonalLoop=1;jettySize=auto;html=1;exitX=0.5;exitY=1;exitDx=0;exitDy=0;entryX=0.5;entryY=0;entryDx=0;entryDy=0;" edge="1" parent="1" source="0QXSVdMffTq5Xskhfl2z-3" target="0QXSVdMffTq5Xskhfl2z-5">
          <mxGeometry relative="1" as="geometry" />
        </mxCell>
        <mxCell id="0QXSVdMffTq5Xskhfl2z-3" value="Input N ngẫu nhiên từ 0-9" style="shape=parallelogram;perimeter=parallelogramPerimeter;whiteSpace=wrap;html=1;fixedSize=1;" vertex="1" parent="1">
          <mxGeometry x="346" y="-980" width="188" height="40" as="geometry" />
        </mxCell>
        <mxCell id="0QXSVdMffTq5Xskhfl2z-11" value="" style="edgeStyle=orthogonalEdgeStyle;rounded=0;orthogonalLoop=1;jettySize=auto;html=1;" edge="1" parent="1" source="0QXSVdMffTq5Xskhfl2z-5" target="0QXSVdMffTq5Xskhfl2z-10">
          <mxGeometry relative="1" as="geometry" />
        </mxCell>
        <mxCell id="0QXSVdMffTq5Xskhfl2z-5" value="Input M" style="shape=parallelogram;perimeter=parallelogramPerimeter;whiteSpace=wrap;html=1;fixedSize=1;" vertex="1" parent="1">
          <mxGeometry x="346" y="-900" width="188" height="40" as="geometry" />
        </mxCell>
        <mxCell id="0QXSVdMffTq5Xskhfl2z-12" style="edgeStyle=orthogonalEdgeStyle;rounded=0;orthogonalLoop=1;jettySize=auto;html=1;" edge="1" parent="1" source="0QXSVdMffTq5Xskhfl2z-10">
          <mxGeometry relative="1" as="geometry">
            <mxPoint x="660" y="-760" as="targetPoint" />
          </mxGeometry>
        </mxCell>
        <mxCell id="0QXSVdMffTq5Xskhfl2z-18" style="edgeStyle=orthogonalEdgeStyle;rounded=0;orthogonalLoop=1;jettySize=auto;html=1;entryX=0.5;entryY=0;entryDx=0;entryDy=0;" edge="1" parent="1" source="0QXSVdMffTq5Xskhfl2z-10" target="0QXSVdMffTq5Xskhfl2z-15">
          <mxGeometry relative="1" as="geometry" />
        </mxCell>
        <mxCell id="0QXSVdMffTq5Xskhfl2z-10" value="N==M" style="rhombus;whiteSpace=wrap;html=1;" vertex="1" parent="1">
          <mxGeometry x="400" y="-820" width="80" height="54" as="geometry" />
        </mxCell>
        <mxCell id="0QXSVdMffTq5Xskhfl2z-21" style="edgeStyle=orthogonalEdgeStyle;rounded=0;orthogonalLoop=1;jettySize=auto;html=1;exitX=0.5;exitY=1;exitDx=0;exitDy=0;entryX=1;entryY=0.5;entryDx=0;entryDy=0;" edge="1" parent="1" source="0QXSVdMffTq5Xskhfl2z-13" target="0QXSVdMffTq5Xskhfl2z-2">
          <mxGeometry relative="1" as="geometry" />
        </mxCell>
        <mxCell id="0QXSVdMffTq5Xskhfl2z-13" value="Output &quot;Sai&quot;" style="shape=parallelogram;perimeter=parallelogramPerimeter;whiteSpace=wrap;html=1;fixedSize=1;" vertex="1" parent="1">
          <mxGeometry x="600" y="-760" width="120" height="36" as="geometry" />
        </mxCell>
        <mxCell id="0QXSVdMffTq5Xskhfl2z-14" style="edgeStyle=orthogonalEdgeStyle;rounded=0;orthogonalLoop=1;jettySize=auto;html=1;exitX=0.5;exitY=1;exitDx=0;exitDy=0;" edge="1" parent="1" source="0QXSVdMffTq5Xskhfl2z-13" target="0QXSVdMffTq5Xskhfl2z-13">
          <mxGeometry relative="1" as="geometry" />
        </mxCell>
        <mxCell id="0QXSVdMffTq5Xskhfl2z-19" style="edgeStyle=orthogonalEdgeStyle;rounded=0;orthogonalLoop=1;jettySize=auto;html=1;exitX=0.5;exitY=1;exitDx=0;exitDy=0;entryX=0;entryY=0.5;entryDx=0;entryDy=0;" edge="1" parent="1" source="0QXSVdMffTq5Xskhfl2z-15" target="0QXSVdMffTq5Xskhfl2z-2">
          <mxGeometry relative="1" as="geometry" />
        </mxCell>
        <mxCell id="0QXSVdMffTq5Xskhfl2z-15" value="Output &quot;Đúng&quot;" style="shape=parallelogram;perimeter=parallelogramPerimeter;whiteSpace=wrap;html=1;fixedSize=1;" vertex="1" parent="1">
          <mxGeometry x="170" y="-760" width="120" height="36" as="geometry" />
        </mxCell>
        <mxCell id="0QXSVdMffTq5Xskhfl2z-22" value="YES" style="text;html=1;align=center;verticalAlign=middle;resizable=0;points=[];autosize=1;strokeColor=none;fillColor=none;" vertex="1" parent="1">
          <mxGeometry x="275" y="-822" width="50" height="30" as="geometry" />
        </mxCell>
        <mxCell id="0QXSVdMffTq5Xskhfl2z-23" value="NO" style="text;html=1;align=center;verticalAlign=middle;resizable=0;points=[];autosize=1;strokeColor=none;fillColor=none;" vertex="1" parent="1">
          <mxGeometry x="575" y="-830" width="40" height="30" as="geometry" />
        </mxCell>
      </root>
    </mxGraphModel>
  </diagram>
</mxfile>
